<?xml version="1.0" standalone="no"?>
<!DOCTYPE svg PUBLIC "-//W3C//DTD SVG 1.1//EN" "http://www.w3.org/Graphics/SVG/1.1/DTD/svg11.dtd" >
<svg xmlns="http://www.w3.org/2000/svg" xmlns:xlink="http://www.w3.org/1999/xlink" version="1.1">
<metadata></metadata>
<defs>
<font id="utm_bebasregular" horiz-adv-x="811" >
<font-face units-per-em="2048" ascent="1638" descent="-410" />
<missing-glyph horiz-adv-x="317" />
<glyph horiz-adv-x="0" />
<glyph unicode="&#xd;" horiz-adv-x="571" />
<glyph unicode=" "  horiz-adv-x="317" />
<glyph unicode="&#x09;" horiz-adv-x="317" />
<glyph unicode="&#xa0;" horiz-adv-x="317" />
<glyph unicode="!" horiz-adv-x="389" d="M81 836v598h225v-598l-28 -519h-168zM85 0v217h217v-217h-217z" />
<glyph unicode="&#x22;" horiz-adv-x="665" d="M81 1434h217l-33 -422h-153zM366 1434h217l-33 -422h-154z" />
<glyph unicode="#" horiz-adv-x="839" d="M30 410l16 159h101l39 375h-103l17 160h102l35 330h184l-35 -330h133l35 330h185l-35 -330h104l-16 -160h-105l-39 -375h105l-16 -159h-105l-43 -410h-184l43 410h-133l-43 -410h-185l43 410h-100zM331 569h133l39 375h-133z" />
<glyph unicode="$" d="M69 365v118h213v-133q0 -139 117 -139q116 0 116 139q0 97 -68 179q-27 32 -71 70l-81 68q-50 41 -81 72q-42 43 -70 86q-69 106 -69 244q0 298 238 350v107h184v-107q242 -49 242 -350v-55h-213v69q0 142 -113 142t-113 -142q0 -97 69 -179q27 -31 71 -70l60 -50 q12 -10 21 -17q50 -42 80 -73q43 -43 71 -86q69 -106 69 -243q0 -303 -244 -353v-104h-184v104q-244 50 -244 353z" />
<glyph unicode="%" horiz-adv-x="1284" d="M69 743v471q0 230 217 230t217 -230v-471q0 -229 -217 -229t-217 229zM212 733q0 -90 74 -90t74 90v492q0 90 -74 90t-74 -90v-492zM286 0l565 1434h133l-565 -1434h-133zM780 213v471q0 229 217 229t217 -229v-471q0 -229 -217 -229t-217 229zM923 203q0 -90 74 -90 q73 0 73 90v491q0 90 -73 90q-74 0 -74 -90v-491z" />
<glyph unicode="&#x26;" horiz-adv-x="847" d="M83 311v146q0 232 156 301q-156 66 -156 295v26q0 355 336 355h258v-205h-254q-115 0 -115 -139v-89q0 -151 135 -151h99v160h225v-160h59v-205h-59v-471q0 -116 25 -174h-230l-12 43q-5 26 -8 70q-60 -129 -209 -129q-250 0 -250 327zM308 330q0 -142 117 -142 q111 0 117 125v332h-86q-148 0 -148 -182v-133z" />
<glyph unicode="'" horiz-adv-x="368" d="M75 1434h217l-33 -422h-153z" />
<glyph unicode="(" horiz-adv-x="514" d="M96 313v807q0 314 315 314h70v-185h-55q-105 0 -105 -129v-807q0 -129 105 -129h55v-184h-70q-315 0 -315 313z" />
<glyph unicode=")" horiz-adv-x="514" d="M32 0v184h55q105 0 105 129v807q0 129 -105 129h-55v185h70q315 0 315 -314v-807q0 -313 -315 -313h-70z" />
<glyph unicode="*" d="M4 1075l57 174l305 -153l-53 338h185l-54 -338l305 153l58 -174l-336 -57l240 -240l-148 -108l-158 303l-157 -303l-148 108l240 240z" />
<glyph unicode="+" d="M71 356v160h254v164h-254v160h254v233h160v-233h254v-160h-254v-164h254v-160h-668z" />
<glyph unicode="," horiz-adv-x="380" d="M81 0v217h217v-194l-98 -228h-92l59 205h-86z" />
<glyph unicode="-" horiz-adv-x="552" d="M71 614v205h410v-205h-410z" />
<glyph unicode="." horiz-adv-x="380" d="M81 0v217h217v-217h-217z" />
<glyph unicode="/" horiz-adv-x="780" d="M10 0l565 1434h195l-565 -1434h-195z" />
<glyph unicode="0" d="M63 344v746q0 360 342 360t342 -360v-746q0 -360 -342 -360t-342 360zM288 330q0 -142 117 -142t117 142v774q0 141 -117 141t-117 -141v-774z" />
<glyph unicode="1" d="M221 1094v159q118 0 176 54q39 36 72 127h151v-1434h-225v1094h-174z" />
<glyph unicode="2" d="M81 0v176q0 141 70 261q28 49 71 102q27 32 82 93l42 46q23 25 40 46q44 53 72 101q69 119 69 256q0 164 -116 164q-117 0 -117 -141v-154h-213v140q0 360 336 360t336 -360q0 -159 -76 -302q-31 -58 -77 -119q-34 -46 -87 -104l-84 -94q-46 -51 -71 -88 q-66 -96 -52 -178h426v-205h-651z" />
<glyph unicode="3" d="M69 344v119h213v-133q0 -142 117 -142q116 0 116 162v113q0 182 -147 182h-76v205h88q135 0 135 151v80q0 164 -116 164q-117 0 -117 -141v-92h-213v78q0 360 336 360t336 -360v-37q0 -230 -158 -295q158 -69 158 -301v-113q0 -360 -336 -360t-336 360z" />
<glyph unicode="4" d="M28 260v205l410 969h245v-969h107v-205h-107v-260h-225v260h-430zM235 465h223v530z" />
<glyph unicode="5" d="M71 344v119h213v-133q0 -140 117 -140q116 0 116 140v315q0 141 -116 141q-117 0 -117 -141v-43h-213l41 832h594v-205h-391l-19 -342q64 104 197 104q250 0 250 -327v-320q0 -360 -336 -360t-336 360z" />
<glyph unicode="6" d="M67 344v733q0 373 344 373q336 0 336 -360v-37h-213v51q0 141 -117 141q-125 0 -125 -176v-262q61 127 209 127q250 0 250 -328v-262q0 -360 -342 -360t-342 360zM292 330q0 -140 117 -140t117 140v258q0 141 -117 141t-117 -141v-258z" />
<glyph unicode="7" d="M67 1229v205h676v-197l-332 -1237h-225l330 1229h-449z" />
<glyph unicode="8" d="M53 344v113q0 220 139 299q-139 75 -139 288v46q0 360 352 360q353 0 353 -360v-46q0 -211 -140 -288q140 -79 140 -299v-113q0 -360 -353 -360q-352 0 -352 360zM278 350q0 -162 127 -162q125 0 127 162v133q0 162 -127 162t-127 -162v-133zM278 1001q0 -151 127 -151 t127 151v80q0 164 -127 164t-127 -164v-80z" />
<glyph unicode="9" d="M59 827v263q0 360 342 360t342 -360v-734q0 -372 -344 -372q-336 0 -336 360v37h213v-51q0 -142 117 -142q125 0 125 177v262q-61 -127 -209 -127q-250 0 -250 327zM284 846q0 -141 117 -141t117 141v258q0 139 -117 139t-117 -139v-258z" />
<glyph unicode=":" horiz-adv-x="380" d="M81 0v217h217v-217h-217zM81 780v217h217v-217h-217z" />
<glyph unicode=";" horiz-adv-x="380" d="M81 0v217h217v-194l-98 -228h-92l59 205h-86zM81 780v217h217v-217h-217z" />
<glyph unicode="&#x3c;" d="M61 637v160l668 245v-161l-459 -164l459 -164v-162z" />
<glyph unicode="=" d="M71 471v160h668v-160h-668zM71 803v160h668v-160h-668z" />
<glyph unicode="&#x3e;" d="M81 391v162l459 164l-459 164v161l668 -245v-160z" />
<glyph unicode="?" horiz-adv-x="737" d="M40 948v142q0 360 332 360t332 -360q0 -126 -42 -229q-17 -42 -43 -85q-18 -32 -49 -74q-5 -7 -12 -17l-36 -52q-27 -38 -43 -69q-42 -80 -42 -167q0 -44 9 -80h-201q-12 37 -12 89q0 104 38 191q15 34 39 73l91 139q23 41 39 79q38 97 38 216q0 141 -112 141 q-113 0 -113 -141v-156h-213zM235 0v217h217v-217h-217z" />
<glyph unicode="@" horiz-adv-x="1411" d="M49 594q0 400 188 650q204 272 568 272q303 0 446 -177q123 -152 123 -426q0 -178 -40 -314q-36 -120 -100 -201q-57 -71 -130 -107q-64 -31 -129 -31q-169 0 -181 135q-62 -129 -198 -123q-216 7 -185 316l23 207q32 312 250 303q126 -3 168 -127l12 119h197l-62 -592 q-6 -52 41 -52q80 0 125 154q39 131 39 309q0 201 -97 312q-105 120 -310 120q-270 0 -415 -203q-140 -198 -140 -554q0 -254 116 -391q122 -144 361 -144q122 0 215 28q107 33 209 111l-17 -196q-96 -64 -204 -91q-93 -24 -216 -24q-332 0 -501 200q-156 184 -156 517z M610 598q-14 -132 88 -135q101 -3 115 129l20 194q12 115 -88 115q-102 3 -116 -129z" />
<glyph unicode="A" horiz-adv-x="833" d="M22 0l229 1434h330l229 -1434h-227l-39 260h-276l-39 -260h-207zM296 455h218l-109 725z" />
<glyph unicode="B" horiz-adv-x="831" d="M81 0v1434h340q334 0 334 -330v-51q0 -221 -146 -289q168 -66 168 -307v-117q0 -340 -342 -340h-354zM306 205h129q117 0 117 141v125q0 174 -145 174h-101v-440zM306 850h88q136 0 136 151v80q0 148 -115 148h-109v-379z" />
<glyph unicode="C" horiz-adv-x="790" d="M63 344v746q0 360 336 360t336 -360v-140h-213v154q0 141 -117 141t-117 -141v-774q0 -140 117 -140t117 140v205h213v-191q0 -360 -336 -360t-336 360z" />
<glyph unicode="D" horiz-adv-x="835" d="M81 0v1434h356q336 0 336 -355v-725q0 -354 -336 -354h-356zM306 205h127q115 0 115 139v746q0 139 -115 139h-127v-1024z" />
<glyph unicode="E" horiz-adv-x="753" d="M81 0v1434h614v-205h-389v-400h310v-204h-310v-420h389v-205h-614z" />
<glyph unicode="F" horiz-adv-x="704" d="M81 0v1434h596v-205h-371v-432h291v-205h-291v-592h-225z" />
<glyph unicode="G" horiz-adv-x="798" d="M63 344v746q0 360 336 360t336 -360v-140h-213v154q0 141 -117 141t-117 -141v-774q0 -140 117 -140t117 140v264h-103v205h316v-455q0 -360 -336 -360t-336 360z" />
<glyph unicode="H" horiz-adv-x="874" d="M81 0v1434h225v-615h256v615h230v-1434h-230v614h-256v-614h-225z" />
<glyph unicode="I" horiz-adv-x="389" d="M81 0v1434h225v-1434h-225z" />
<glyph unicode="J" horiz-adv-x="524" d="M20 0v205q16 -2 39 -2h39q129 0 129 137v1094h225v-1078q0 -198 -98 -287q-80 -73 -225 -73q-72 0 -109 4z" />
<glyph unicode="K" horiz-adv-x="847" d="M81 0v1434h225v-652l314 652h206l-311 -637l311 -797h-231l-221 580l-68 -119v-461h-225z" />
<glyph unicode="L" horiz-adv-x="698" d="M81 0v1434h225v-1229h371v-205h-596z" />
<glyph unicode="M" horiz-adv-x="1107" d="M79 0v1434h313l166 -1018l154 1018h313v-1434h-213v1028l-155 -1028h-213l-168 1014v-1014h-197z" />
<glyph unicode="N" horiz-adv-x="874" d="M79 0v1434h283l231 -859v859h201v-1434h-232l-280 1038v-1038h-203z" />
<glyph unicode="O" d="M63 344v746q0 360 342 360t342 -360v-746q0 -360 -342 -360t-342 360zM288 330q0 -142 117 -142t117 142v774q0 141 -117 141t-117 -141v-774z" />
<glyph unicode="P" horiz-adv-x="772" d="M81 0v1434h332q336 0 336 -355v-186q0 -354 -336 -354h-107v-539h-225zM306 743h107q110 0 110 136v215q0 135 -110 135h-107v-486z" />
<glyph unicode="Q" d="M63 344v746q0 360 342 360t342 -360v-746q0 -121 -43 -201q12 -30 64 -30h20v-201h-31q-145 0 -194 98q-74 -26 -158 -26q-342 0 -342 360zM288 330q0 -142 117 -142t117 142v774q0 141 -117 141t-117 -141v-774z" />
<glyph unicode="R" horiz-adv-x="823" d="M81 0v1434h340q334 0 334 -330v-113q0 -221 -148 -291q150 -62 150 -305v-221q0 -116 24 -174h-229q-11 34 -15 58q-5 39 -5 118v225q0 183 -148 183h-78v-584h-225zM306 788h88q136 0 136 152v141q0 148 -115 148h-109v-441z" />
<glyph unicode="S" horiz-adv-x="765" d="M47 344v139h213v-153q0 -140 117 -140q116 0 116 140q0 97 -68 185q-27 34 -71 77l-81 75q-50 46 -81 80q-42 47 -70 92q-69 113 -69 251q0 360 332 360t332 -360v-76h-213v90q0 141 -113 141t-113 -141q0 -97 69 -186q27 -34 71 -76l60 -56q12 -11 21 -19q50 -46 80 -80 q43 -47 71 -93q69 -112 69 -250q0 -360 -336 -360t-336 360z" />
<glyph unicode="T" horiz-adv-x="737" d="M20 1229v205h696v-205h-235v-1229h-225v1229h-236z" />
<glyph unicode="U" horiz-adv-x="815" d="M71 342v1092h225v-1106q0 -140 117 -140t117 140v1106h213v-1092q0 -360 -336 -360t-336 360z" />
<glyph unicode="V" horiz-adv-x="823" d="M22 1434h227l172 -1170l172 1170h207l-221 -1434h-336z" />
<glyph unicode="W" horiz-adv-x="1153" d="M30 1434h219l121 -1131l109 1131h217l112 -1139l117 1139h197l-160 -1434h-299l-82 764l-82 -764h-309z" />
<glyph unicode="X" horiz-adv-x="880" d="M30 0l252 737l-236 697h234l170 -529l174 529h209l-236 -697l252 -737h-237l-185 567l-186 -567h-211z" />
<glyph unicode="Y" d="M8 1434h236l172 -654l172 654h215l-285 -959v-475h-225v475z" />
<glyph unicode="Z" horiz-adv-x="757" d="M47 0v201l428 1028h-408v205h639v-201l-428 -1028h428v-205h-659z" />
<glyph unicode="[" horiz-adv-x="514" d="M96 0v1434h373v-185h-148v-1065h148v-184h-373z" />
<glyph unicode="\" horiz-adv-x="780" d="M10 1434h195l565 -1434h-195z" />
<glyph unicode="]" horiz-adv-x="514" d="M45 0v184h147v1065h-147v185h373v-1434h-373z" />
<glyph unicode="^" d="M40 799l285 635h159l285 -635h-180l-184 430l-185 -430h-180z" />
<glyph unicode="_" horiz-adv-x="1024" d="M0 -20h1024v-164h-1024v164z" />
<glyph unicode="`" horiz-adv-x="512" d="M59 1743h244l147 -240h-170z" />
<glyph unicode="a" horiz-adv-x="833" d="M22 0l229 1434h330l229 -1434h-227l-39 260h-276l-39 -260h-207zM296 455h218l-109 725z" />
<glyph unicode="b" horiz-adv-x="831" d="M81 0v1434h340q334 0 334 -330v-51q0 -221 -146 -289q168 -66 168 -307v-117q0 -340 -342 -340h-354zM306 205h129q117 0 117 141v125q0 174 -145 174h-101v-440zM306 850h88q136 0 136 151v80q0 148 -115 148h-109v-379z" />
<glyph unicode="c" horiz-adv-x="790" d="M63 344v746q0 360 336 360t336 -360v-140h-213v154q0 141 -117 141t-117 -141v-774q0 -140 117 -140t117 140v205h213v-191q0 -360 -336 -360t-336 360z" />
<glyph unicode="d" horiz-adv-x="835" d="M81 0v1434h356q336 0 336 -355v-725q0 -354 -336 -354h-356zM306 205h127q115 0 115 139v746q0 139 -115 139h-127v-1024z" />
<glyph unicode="e" horiz-adv-x="753" d="M81 0v1434h614v-205h-389v-400h310v-204h-310v-420h389v-205h-614z" />
<glyph unicode="f" horiz-adv-x="704" d="M81 0v1434h596v-205h-371v-432h291v-205h-291v-592h-225z" />
<glyph unicode="g" horiz-adv-x="798" d="M63 344v746q0 360 336 360t336 -360v-140h-213v154q0 141 -117 141t-117 -141v-774q0 -140 117 -140t117 140v264h-103v205h316v-455q0 -360 -336 -360t-336 360z" />
<glyph unicode="h" horiz-adv-x="874" d="M81 0v1434h225v-615h256v615h230v-1434h-230v614h-256v-614h-225z" />
<glyph unicode="i" horiz-adv-x="389" d="M81 0v1434h225v-1434h-225z" />
<glyph unicode="j" horiz-adv-x="524" d="M20 0v205q16 -2 39 -2h39q129 0 129 137v1094h225v-1078q0 -198 -98 -287q-80 -73 -225 -73q-72 0 -109 4z" />
<glyph unicode="k" horiz-adv-x="847" d="M81 0v1434h225v-652l314 652h206l-311 -637l311 -797h-231l-221 580l-68 -119v-461h-225z" />
<glyph unicode="l" horiz-adv-x="698" d="M81 0v1434h225v-1229h371v-205h-596z" />
<glyph unicode="m" horiz-adv-x="1107" d="M79 0v1434h313l166 -1018l154 1018h313v-1434h-213v1028l-155 -1028h-213l-168 1014v-1014h-197z" />
<glyph unicode="n" horiz-adv-x="874" d="M79 0v1434h283l231 -859v859h201v-1434h-232l-280 1038v-1038h-203z" />
<glyph unicode="o" d="M63 344v746q0 360 342 360t342 -360v-746q0 -360 -342 -360t-342 360zM288 330q0 -142 117 -142t117 142v774q0 141 -117 141t-117 -141v-774z" />
<glyph unicode="p" horiz-adv-x="772" d="M81 0v1434h332q336 0 336 -355v-186q0 -354 -336 -354h-107v-539h-225zM306 743h107q110 0 110 136v215q0 135 -110 135h-107v-486z" />
<glyph unicode="q" d="M63 344v746q0 360 342 360t342 -360v-746q0 -121 -43 -201q12 -30 64 -30h20v-201h-31q-145 0 -194 98q-74 -26 -158 -26q-342 0 -342 360zM288 330q0 -142 117 -142t117 142v774q0 141 -117 141t-117 -141v-774z" />
<glyph unicode="r" horiz-adv-x="823" d="M81 0v1434h340q334 0 334 -330v-113q0 -221 -148 -291q150 -62 150 -305v-221q0 -116 24 -174h-229q-11 34 -15 58q-5 39 -5 118v225q0 183 -148 183h-78v-584h-225zM306 788h88q136 0 136 152v141q0 148 -115 148h-109v-441z" />
<glyph unicode="s" horiz-adv-x="765" d="M47 344v139h213v-153q0 -140 117 -140q116 0 116 140q0 97 -68 185q-27 34 -71 77l-81 75q-50 46 -81 80q-42 47 -70 92q-69 113 -69 251q0 360 332 360t332 -360v-76h-213v90q0 141 -113 141t-113 -141q0 -97 69 -186q27 -34 71 -76l60 -56q12 -11 21 -19q50 -46 80 -80 q43 -47 71 -93q69 -112 69 -250q0 -360 -336 -360t-336 360z" />
<glyph unicode="t" horiz-adv-x="737" d="M20 1229v205h696v-205h-235v-1229h-225v1229h-236z" />
<glyph unicode="u" horiz-adv-x="815" d="M71 342v1092h225v-1106q0 -140 117 -140t117 140v1106h213v-1092q0 -360 -336 -360t-336 360z" />
<glyph unicode="v" horiz-adv-x="823" d="M22 1434h227l172 -1170l172 1170h207l-221 -1434h-336z" />
<glyph unicode="w" horiz-adv-x="1153" d="M30 1434h219l121 -1131l109 1131h217l112 -1139l117 1139h197l-160 -1434h-299l-82 764l-82 -764h-309z" />
<glyph unicode="x" horiz-adv-x="880" d="M30 0l252 737l-236 697h234l170 -529l174 529h209l-236 -697l252 -737h-237l-185 567l-186 -567h-211z" />
<glyph unicode="y" d="M8 1434h236l172 -654l172 654h215l-285 -959v-475h-225v475z" />
<glyph unicode="z" horiz-adv-x="757" d="M47 0v201l428 1028h-408v205h639v-201l-428 -1028h428v-205h-659z" />
<glyph unicode="{" horiz-adv-x="526" d="M22 625v184q105 0 113 123l16 274q15 228 227 228h115v-185h-33q-100 0 -108 -145l-11 -205q-3 -67 -28 -109q-33 -55 -105 -73q72 -18 105 -73q25 -42 28 -109l11 -205q8 -146 108 -146h33v-184h-115q-212 0 -227 227l-16 275q-8 123 -113 123z" />
<glyph unicode="|" horiz-adv-x="1024" d="M430 -133v1700h184v-1700h-184z" />
<glyph unicode="}" horiz-adv-x="526" d="M32 0v184h33q100 0 108 146l11 205q3 67 28 109q33 55 105 73q-72 18 -105 73q-25 42 -28 109l-11 205q-8 145 -108 145h-33v185h115q212 0 227 -228l16 -274q8 -123 113 -123v-184q-105 0 -113 -123l-16 -275q-15 -227 -227 -227h-115z" />
<glyph unicode="~" d="M16 680q71 104 130 147q52 37 114 37q37 0 80 -19q29 -13 75 -43l36 -23q20 -13 35 -20q38 -20 67 -20q51 0 135 117l106 -111q-69 -102 -129 -142q-51 -34 -114 -34q-38 0 -81 20q-28 13 -75 43l-9 6l-27 17q-20 12 -35 20q-38 19 -66 19q-54 0 -136 -116z" />
<glyph unicode="&#xad;" horiz-adv-x="552" d="M71 614v205h410v-205h-410z" />
<glyph unicode="&#xc0;" horiz-adv-x="833" d="M22 0l229 1434h330l229 -1434h-227l-39 260h-276l-39 -260h-207zM139 1743h243l148 -240h-170zM296 455h218l-109 725z" />
<glyph unicode="&#xc1;" horiz-adv-x="833" d="M22 0l229 1434h330l229 -1434h-227l-39 260h-276l-39 -260h-207zM296 455h218l-109 725zM307 1503l147 240h234l-222 -240h-159z" />
<glyph unicode="&#xc2;" horiz-adv-x="833" d="M22 0l229 1434h330l229 -1434h-227l-39 260h-276l-39 -260h-207zM118 1503l191 240h215l190 -240h-203l-96 119l-94 -119h-203zM296 455h218l-109 725z" />
<glyph unicode="&#xc3;" horiz-adv-x="833" d="M22 0l229 1434h330l229 -1434h-227l-39 260h-276l-39 -260h-207zM110 1577q48 86 95 118q40 27 100 27q49 0 116 -27l48 -19q26 -9 47 -9q56 0 90 68l114 -86q-48 -86 -95 -118q-40 -28 -99 -28q-50 0 -116 28l-48 19q-26 9 -47 9q-56 0 -90 -68zM296 455h218l-109 725z " />
<glyph unicode="&#xc8;" horiz-adv-x="753" d="M81 0v1434h614v-205h-389v-400h310v-204h-310v-420h389v-205h-614zM108 1743h243l148 -240h-170z" />
<glyph unicode="&#xc9;" horiz-adv-x="753" d="M81 0v1434h614v-205h-389v-400h310v-204h-310v-420h389v-205h-614zM278 1503l147 240h234l-222 -240h-159z" />
<glyph unicode="&#xca;" horiz-adv-x="753" d="M81 0v1434h614v-205h-389v-400h310v-204h-310v-420h389v-205h-614zM87 1503l191 240h215l190 -240h-203l-96 119l-94 -119h-203z" />
<glyph unicode="&#xcc;" horiz-adv-x="389" d="M-81 1743h244l147 -240h-170zM83 0v1434h225v-1434h-225z" />
<glyph unicode="&#xcd;" horiz-adv-x="389" d="M81 0v1434h225v-1434h-225zM85 1503l148 240h233l-221 -240h-160z" />
<glyph unicode="&#xd2;" d="M63 344v746q0 360 342 360t342 -360v-746q0 -360 -342 -360t-342 360zM126 1743h244l148 -240h-170zM288 330q0 -142 117 -142t117 142v774q0 141 -117 141t-117 -141v-774z" />
<glyph unicode="&#xd3;" d="M63 344v746q0 360 342 360t342 -360v-746q0 -360 -342 -360t-342 360zM288 330q0 -142 117 -142t117 142v774q0 141 -117 141t-117 -141v-774zM296 1503l148 240h233l-221 -240h-160z" />
<glyph unicode="&#xd4;" d="M63 344v746q0 360 342 360t342 -360v-746q0 -360 -342 -360t-342 360zM106 1503l190 240h216l190 -240h-203l-96 119l-94 -119h-203zM288 330q0 -142 117 -142t117 142v774q0 141 -117 141t-117 -141v-774z" />
<glyph unicode="&#xd5;" d="M63 344v746q0 360 342 360t342 -360v-746q0 -360 -342 -360t-342 360zM100 1577q48 86 95 118q40 27 99 27q50 0 117 -27l48 -19q26 -9 46 -9q57 0 90 68l115 -86q-48 -86 -95 -118q-40 -28 -99 -28q-50 0 -117 28l-48 19q-25 9 -46 9q-57 0 -90 -68zM288 330 q0 -142 117 -142t117 142v774q0 141 -117 141t-117 -141v-774z" />
<glyph unicode="&#xd9;" horiz-adv-x="815" d="M71 342v1092h225v-1106q0 -140 117 -140t117 140v1106h213v-1092q0 -360 -336 -360t-336 360zM130 1743h244l148 -240h-170z" />
<glyph unicode="&#xda;" horiz-adv-x="815" d="M71 342v1092h225v-1106q0 -140 117 -140t117 140v1106h213v-1092q0 -360 -336 -360t-336 360zM300 1503l148 240h233l-221 -240h-160z" />
<glyph unicode="&#xdd;" d="M8 1434h236l172 -654l172 654h215l-285 -959v-475h-225v475zM301 1503l147 240h234l-221 -240h-160z" />
<glyph unicode="&#xe0;" horiz-adv-x="833" d="M22 0l229 1434h330l229 -1434h-227l-39 260h-276l-39 -260h-207zM139 1743h243l148 -240h-170zM296 455h218l-109 725z" />
<glyph unicode="&#xe1;" horiz-adv-x="833" d="M22 0l229 1434h330l229 -1434h-227l-39 260h-276l-39 -260h-207zM296 455h218l-109 725zM307 1503l147 240h234l-222 -240h-159z" />
<glyph unicode="&#xe2;" horiz-adv-x="833" d="M22 0l229 1434h330l229 -1434h-227l-39 260h-276l-39 -260h-207zM118 1503l191 240h215l190 -240h-203l-96 119l-94 -119h-203zM296 455h218l-109 725z" />
<glyph unicode="&#xe3;" horiz-adv-x="833" d="M22 0l229 1434h330l229 -1434h-227l-39 260h-276l-39 -260h-207zM110 1577q48 86 95 118q40 27 100 27q49 0 116 -27l48 -19q26 -9 47 -9q56 0 90 68l114 -86q-48 -86 -95 -118q-40 -28 -99 -28q-50 0 -116 28l-48 19q-26 9 -47 9q-56 0 -90 -68zM296 455h218l-109 725z " />
<glyph unicode="&#xe8;" horiz-adv-x="753" d="M81 0v1434h614v-205h-389v-400h310v-204h-310v-420h389v-205h-614zM108 1743h243l148 -240h-170z" />
<glyph unicode="&#xe9;" horiz-adv-x="753" d="M81 0v1434h614v-205h-389v-400h310v-204h-310v-420h389v-205h-614zM278 1503l147 240h234l-222 -240h-159z" />
<glyph unicode="&#xea;" horiz-adv-x="753" d="M81 0v1434h614v-205h-389v-400h310v-204h-310v-420h389v-205h-614zM87 1503l191 240h215l190 -240h-203l-96 119l-94 -119h-203z" />
<glyph unicode="&#xec;" horiz-adv-x="389" d="M-81 1743h244l147 -240h-170zM83 0v1434h225v-1434h-225z" />
<glyph unicode="&#xed;" horiz-adv-x="389" d="M81 0v1434h225v-1434h-225zM85 1503l148 240h233l-221 -240h-160z" />
<glyph unicode="&#xf2;" d="M63 344v746q0 360 342 360t342 -360v-746q0 -360 -342 -360t-342 360zM126 1743h244l148 -240h-170zM288 330q0 -142 117 -142t117 142v774q0 141 -117 141t-117 -141v-774z" />
<glyph unicode="&#xf3;" d="M63 344v746q0 360 342 360t342 -360v-746q0 -360 -342 -360t-342 360zM288 330q0 -142 117 -142t117 142v774q0 141 -117 141t-117 -141v-774zM296 1503l148 240h233l-221 -240h-160z" />
<glyph unicode="&#xf4;" d="M63 344v746q0 360 342 360t342 -360v-746q0 -360 -342 -360t-342 360zM106 1503l190 240h216l190 -240h-203l-96 119l-94 -119h-203zM288 330q0 -142 117 -142t117 142v774q0 141 -117 141t-117 -141v-774z" />
<glyph unicode="&#xf5;" d="M63 344v746q0 360 342 360t342 -360v-746q0 -360 -342 -360t-342 360zM100 1577q48 86 95 118q40 27 99 27q50 0 117 -27l48 -19q26 -9 46 -9q57 0 90 68l115 -86q-48 -86 -95 -118q-40 -28 -99 -28q-50 0 -117 28l-48 19q-25 9 -46 9q-57 0 -90 -68zM288 330 q0 -142 117 -142t117 142v774q0 141 -117 141t-117 -141v-774z" />
<glyph unicode="&#xf9;" horiz-adv-x="582" />
<glyph unicode="&#xfa;" horiz-adv-x="580" />
<glyph unicode="&#xfd;" horiz-adv-x="629" />
<glyph unicode="&#x102;" horiz-adv-x="833" d="M22 0l229 1434h330l229 -1434h-227l-39 260h-276l-39 -260h-207zM175 1743h141q7 -101 98 -101q95 0 103 101h141q0 -248 -244 -248q-236 0 -239 248zM296 455h218l-109 725z" />
<glyph unicode="&#x103;" horiz-adv-x="833" d="M22 0l229 1434h330l229 -1434h-227l-39 260h-276l-39 -260h-207zM175 1743h141q7 -101 98 -101q95 0 103 101h141q0 -248 -244 -248q-236 0 -239 248zM296 455h218l-109 725z" />
<glyph unicode="&#x110;" horiz-adv-x="835" d="M8 625v184h74v625h356q336 0 336 -355v-725q0 -354 -336 -354h-356v625h-74zM307 205h127q115 0 115 139v746q0 139 -115 139h-127v-420h139v-184h-139v-420z" />
<glyph unicode="&#x111;" horiz-adv-x="835" d="M8 625v184h74v625h356q336 0 336 -355v-725q0 -354 -336 -354h-356v625h-74zM307 205h127q115 0 115 139v746q0 139 -115 139h-127v-420h139v-184h-139v-420z" />
<glyph unicode="&#x128;" horiz-adv-x="389" d="M-106 1577q48 86 95 118q40 27 100 27q49 0 116 -27l48 -19q26 -9 47 -9q56 0 90 68l114 -86q-48 -86 -95 -118q-40 -28 -99 -28q-50 0 -116 28l-48 19q-26 9 -47 9q-57 0 -90 -68zM81 0v1434h226v-1434h-226z" />
<glyph unicode="&#x129;" horiz-adv-x="389" d="M-106 1577q48 86 95 118q40 27 100 27q49 0 116 -27l48 -19q26 -9 47 -9q56 0 90 68l114 -86q-48 -86 -95 -118q-40 -28 -99 -28q-50 0 -116 28l-48 19q-26 9 -47 9q-57 0 -90 -68zM81 0v1434h226v-1434h-226z" />
<glyph unicode="&#x168;" horiz-adv-x="815" d="M71 342v1092h225v-1106q0 -140 117 -140t117 140v1106h213v-1092q0 -360 -336 -360t-336 360zM100 1577q48 86 95 118q40 27 99 27q50 0 116 -27l48 -19q26 -9 47 -9q56 0 90 68l115 -86q-48 -86 -95 -118q-40 -28 -100 -28q-49 0 -116 28l-48 19q-26 9 -47 9 q-56 0 -90 -68z" />
<glyph unicode="&#x169;" horiz-adv-x="815" d="M71 342v1092h225v-1106q0 -140 117 -140t117 140v1106h213v-1092q0 -360 -336 -360t-336 360zM100 1577q48 86 95 118q40 27 99 27q50 0 116 -27l48 -19q26 -9 47 -9q56 0 90 68l115 -86q-48 -86 -95 -118q-40 -28 -100 -28q-49 0 -116 28l-48 19q-26 9 -47 9 q-56 0 -90 -68z" />
<glyph unicode="&#x1a0;" d="M63 344v746q0 360 343 360q140 0 223 -61v137h194v-186l-77 -192q2 -28 2 -58v-746q0 -360 -342 -360q-343 0 -343 360zM289 330q0 -142 117 -142q116 0 116 142v774q0 141 -116 141q-117 0 -117 -141v-774z" />
<glyph unicode="&#x1a1;" d="M63 344v746q0 360 343 360q140 0 223 -61v137h194v-186l-77 -192q2 -28 2 -58v-746q0 -360 -342 -360q-343 0 -343 360zM289 330q0 -142 117 -142q116 0 116 142v774q0 141 -116 141q-117 0 -117 -141v-774z" />
<glyph unicode="&#x1af;" horiz-adv-x="815" d="M71 342v1092h225v-1106q0 -140 117 -140q116 0 116 140v1106h99v92h194v-186l-80 -198v-800q0 -360 -335 -360q-336 0 -336 360z" />
<glyph unicode="&#x1b0;" horiz-adv-x="815" d="M71 342v1092h225v-1106q0 -140 117 -140q116 0 116 140v1106h99v92h194v-186l-80 -198v-800q0 -360 -335 -360q-336 0 -336 360z" />
<glyph unicode="&#x1ea0;" horiz-adv-x="833" d="M22 0l229 1434h330l229 -1434h-227l-39 260h-276l-39 -260h-207zM296 455h218l-109 725zM312 -107h209v-209h-209v209z" />
<glyph unicode="&#x1ea1;" horiz-adv-x="833" d="M22 0l229 1434h330l229 -1434h-227l-39 260h-276l-39 -260h-207zM296 455h218l-109 725zM312 -107h209v-209h-209v209z" />
<glyph unicode="&#x1ea2;" horiz-adv-x="833" d="M22 0l229 1434h330l229 -1434h-227l-39 260h-276l-39 -260h-207zM264 1694v75q0 156 145 156t145 -156q0 -51 -16 -94q-8 -16 -18 -35q-6 -12 -19 -28q-2 -2 -4 -6l-14 -19q-8 -12 -15 -22q-12 -25 -12 -52q0 -7 3 -22h-121q-3 13 -3 25q0 45 17 79q6 15 14 31l35 51 q6 13 12 27q12 31 12 70q0 30 -18 30t-18 -30v-80h-125zM296 455h218l-109 725z" />
<glyph unicode="&#x1ea3;" horiz-adv-x="833" d="M22 0l229 1434h330l229 -1434h-227l-39 260h-276l-39 -260h-207zM264 1694v75q0 156 145 156t145 -156q0 -51 -16 -94q-8 -16 -18 -35q-6 -12 -19 -28q-2 -2 -4 -6l-14 -19q-8 -12 -15 -22q-12 -25 -12 -52q0 -7 3 -22h-121q-3 13 -3 25q0 45 17 79q6 15 14 31l35 51 q6 13 12 27q12 31 12 70q0 30 -18 30t-18 -30v-80h-125zM296 455h218l-109 725z" />
<glyph unicode="&#x1ea4;" horiz-adv-x="833" d="M22 0l229 1434h330l229 -1434h-227l-39 260h-276l-39 -260h-207zM118 1503l191 240h215l190 -240h-203l-96 119l-94 -119h-203zM296 455h218l-109 725zM643 1667l147 240h234l-222 -240h-159z" />
<glyph unicode="&#x1ea5;" horiz-adv-x="833" d="M22 0l229 1434h330l229 -1434h-227l-39 260h-276l-39 -260h-207zM118 1503l191 240h215l190 -240h-203l-96 119l-94 -119h-203zM296 455h218l-109 725zM643 1667l147 240h234l-222 -240h-159z" />
<glyph unicode="&#x1ea6;" horiz-adv-x="833" d="M22 0l229 1434h330l229 -1434h-227l-39 260h-276l-39 -260h-207zM118 1503l191 240h215l190 -240h-203l-96 119l-94 -119h-203zM296 455h218l-109 725zM485 1908h243l148 -240h-170z" />
<glyph unicode="&#x1ea7;" horiz-adv-x="833" d="M22 0l229 1434h330l229 -1434h-227l-39 260h-276l-39 -260h-207zM118 1503l191 240h215l190 -240h-203l-96 119l-94 -119h-203zM296 455h218l-109 725zM485 1908h243l148 -240h-170z" />
<glyph unicode="&#x1ea8;" horiz-adv-x="833" d="M22 0l229 1434h330l229 -1434h-227l-39 260h-276l-39 -260h-207zM118 1503l191 240h215l190 -240h-203l-96 119l-94 -119h-203zM296 455h218l-109 725zM581 1875v75q0 156 145 156t145 -156q0 -51 -16 -94q-8 -16 -18 -35q-6 -12 -19 -28q-2 -2 -4 -6l-14 -19 q-8 -12 -15 -22q-12 -25 -12 -52q0 -7 3 -22h-121q-3 13 -3 25q0 45 17 79q6 15 14 31l35 51q6 13 12 27q12 31 12 70q0 30 -18 30t-18 -30v-80h-125z" />
<glyph unicode="&#x1ea9;" horiz-adv-x="833" d="M22 0l229 1434h330l229 -1434h-227l-39 260h-276l-39 -260h-207zM118 1503l191 240h215l190 -240h-203l-96 119l-94 -119h-203zM296 455h218l-109 725zM581 1875v75q0 156 145 156t145 -156q0 -51 -16 -94q-8 -16 -18 -35q-6 -12 -19 -28q-2 -2 -4 -6l-14 -19 q-8 -12 -15 -22q-12 -25 -12 -52q0 -7 3 -22h-121q-3 13 -3 25q0 45 17 79q6 15 14 31l35 51q6 13 12 27q12 31 12 70q0 30 -18 30t-18 -30v-80h-125z" />
<glyph unicode="&#x1eaa;" horiz-adv-x="833" d="M22 0l229 1434h330l229 -1434h-227l-39 260h-276l-39 -260h-207zM118 1503l191 240h215l190 -240h-203l-96 119l-94 -119h-203zM154 1862q48 86 95 118q40 27 100 27q49 0 116 -27l48 -19q26 -9 47 -9q56 0 90 68l114 -86q-48 -86 -95 -118q-40 -28 -99 -28 q-50 0 -116 28l-48 19q-26 9 -47 9q-56 0 -90 -68zM296 455h218l-109 725z" />
<glyph unicode="&#x1eab;" horiz-adv-x="833" d="M22 0l229 1434h330l229 -1434h-227l-39 260h-276l-39 -260h-207zM118 1503l191 240h215l190 -240h-203l-96 119l-94 -119h-203zM154 1862q48 86 95 118q40 27 100 27q49 0 116 -27l48 -19q26 -9 47 -9q56 0 90 68l114 -86q-48 -86 -95 -118q-40 -28 -99 -28 q-50 0 -116 28l-48 19q-26 9 -47 9q-56 0 -90 -68zM296 455h218l-109 725z" />
<glyph unicode="&#x1eac;" horiz-adv-x="833" d="M22 0l229 1434h330l229 -1434h-227l-39 260h-276l-39 -260h-207zM118 1503l191 240h215l190 -240h-203l-96 119l-94 -119h-203zM296 455h218l-109 725zM312 -107h209v-209h-209v209z" />
<glyph unicode="&#x1ead;" horiz-adv-x="833" d="M22 0l229 1434h330l229 -1434h-227l-39 260h-276l-39 -260h-207zM118 1503l191 240h215l190 -240h-203l-96 119l-94 -119h-203zM296 455h218l-109 725zM312 -107h209v-209h-209v209z" />
<glyph unicode="&#x1eae;" horiz-adv-x="833" d="M22 0l229 1434h330l229 -1434h-227l-39 260h-276l-39 -260h-207zM175 1743h141q7 -101 98 -101q95 0 103 101h141q0 -248 -244 -248q-236 0 -239 248zM296 455h218l-109 725zM330 1781l147 240h234l-222 -240h-159z" />
<glyph unicode="&#x1eaf;" horiz-adv-x="833" d="M22 0l229 1434h330l229 -1434h-227l-39 260h-276l-39 -260h-207zM175 1743h141q7 -101 98 -101q95 0 103 101h141q0 -248 -244 -248q-236 0 -239 248zM296 455h218l-109 725zM330 1781l147 240h234l-222 -240h-159z" />
<glyph unicode="&#x1eb0;" horiz-adv-x="833" d="M22 0l229 1434h330l229 -1434h-227l-39 260h-276l-39 -260h-207zM132 2038h243l148 -240h-170zM175 1743h141q7 -101 98 -101q95 0 103 101h141q0 -248 -244 -248q-236 0 -239 248zM296 455h218l-109 725z" />
<glyph unicode="&#x1eb1;" horiz-adv-x="833" d="M22 0l229 1434h330l229 -1434h-227l-39 260h-276l-39 -260h-207zM132 2038h243l148 -240h-170zM175 1743h141q7 -101 98 -101q95 0 103 101h141q0 -248 -244 -248q-236 0 -239 248zM296 455h218l-109 725z" />
<glyph unicode="&#x1eb2;" horiz-adv-x="833" d="M22 0l229 1434h330l229 -1434h-227l-39 260h-276l-39 -260h-207zM175 1743h141q7 -101 98 -101q95 0 103 101h141q0 -248 -244 -248q-236 0 -239 248zM285 1964v75q0 156 145 156t145 -156q0 -51 -16 -94q-8 -16 -18 -35q-6 -12 -19 -28q-2 -2 -4 -6l-14 -19 q-8 -12 -15 -22q-12 -25 -12 -52q0 -7 3 -22h-121q-3 13 -3 25q0 45 17 79q6 15 14 31l35 51q6 13 12 27q12 31 12 70q0 30 -18 30t-18 -30v-80h-125zM296 455h218l-109 725z" />
<glyph unicode="&#x1eb3;" horiz-adv-x="833" d="M22 0l229 1434h330l229 -1434h-227l-39 260h-276l-39 -260h-207zM175 1743h141q7 -101 98 -101q95 0 103 101h141q0 -248 -244 -248q-236 0 -239 248zM285 1964v75q0 156 145 156t145 -156q0 -51 -16 -94q-8 -16 -18 -35q-6 -12 -19 -28q-2 -2 -4 -6l-14 -19 q-8 -12 -15 -22q-12 -25 -12 -52q0 -7 3 -22h-121q-3 13 -3 25q0 45 17 79q6 15 14 31l35 51q6 13 12 27q12 31 12 70q0 30 -18 30t-18 -30v-80h-125zM296 455h218l-109 725z" />
<glyph unicode="&#x1eb4;" horiz-adv-x="833" d="M22 0l229 1434h330l229 -1434h-227l-39 260h-276l-39 -260h-207zM155 1883q48 86 95 118q40 27 100 27q49 0 116 -27l48 -19q26 -9 47 -9q56 0 90 68l114 -86q-48 -86 -95 -118q-40 -28 -99 -28q-50 0 -116 28l-48 19q-26 9 -47 9q-56 0 -90 -68zM175 1743h141 q7 -101 98 -101q95 0 103 101h141q0 -248 -244 -248q-236 0 -239 248zM296 455h218l-109 725z" />
<glyph unicode="&#x1eb5;" horiz-adv-x="833" d="M22 0l229 1434h330l229 -1434h-227l-39 260h-276l-39 -260h-207zM155 1883q48 86 95 118q40 27 100 27q49 0 116 -27l48 -19q26 -9 47 -9q56 0 90 68l114 -86q-48 -86 -95 -118q-40 -28 -99 -28q-50 0 -116 28l-48 19q-26 9 -47 9q-56 0 -90 -68zM175 1743h141 q7 -101 98 -101q95 0 103 101h141q0 -248 -244 -248q-236 0 -239 248zM296 455h218l-109 725z" />
<glyph unicode="&#x1eb6;" horiz-adv-x="833" d="M22 0l229 1434h330l229 -1434h-227l-39 260h-276l-39 -260h-207zM175 1743h141q7 -101 98 -101q95 0 103 101h141q0 -248 -244 -248q-236 0 -239 248zM296 455h218l-109 725zM312 -107h209v-209h-209v209z" />
<glyph unicode="&#x1eb7;" horiz-adv-x="833" d="M22 0l229 1434h330l229 -1434h-227l-39 260h-276l-39 -260h-207zM175 1743h141q7 -101 98 -101q95 0 103 101h141q0 -248 -244 -248q-236 0 -239 248zM296 455h218l-109 725zM312 -107h209v-209h-209v209z" />
<glyph unicode="&#x1eb8;" horiz-adv-x="753" d="M81 0v1434h614v-205h-389v-400h310v-204h-310v-420h389v-205h-614zM284 -107h209v-209h-209v209z" />
<glyph unicode="&#x1eb9;" horiz-adv-x="753" d="M81 0v1434h614v-205h-389v-400h310v-204h-310v-420h389v-205h-614zM284 -107h209v-209h-209v209z" />
<glyph unicode="&#x1eba;" horiz-adv-x="753" d="M81 0v1434h614v-205h-389v-400h310v-204h-310v-420h389v-205h-614zM245 1694v75q0 156 146 156q145 0 145 -156q0 -51 -16 -94q-8 -16 -19 -35q-6 -12 -18 -28q-2 -2 -4 -6l-15 -19q-8 -12 -14 -22q-12 -25 -12 -52q0 -7 2 -22h-121q-2 13 -2 25q0 45 16 79q6 15 15 31 l34 51q7 13 13 27q12 31 12 70q0 30 -18 30q-19 0 -19 -30v-80h-125z" />
<glyph unicode="&#x1ebb;" horiz-adv-x="753" d="M81 0v1434h614v-205h-389v-400h310v-204h-310v-420h389v-205h-614zM245 1694v75q0 156 146 156q145 0 145 -156q0 -51 -16 -94q-8 -16 -19 -35q-6 -12 -18 -28q-2 -2 -4 -6l-15 -19q-8 -12 -14 -22q-12 -25 -12 -52q0 -7 2 -22h-121q-2 13 -2 25q0 45 16 79q6 15 15 31 l34 51q7 13 13 27q12 31 12 70q0 30 -18 30q-19 0 -19 -30v-80h-125z" />
<glyph unicode="&#x1ebc;" horiz-adv-x="753" d="M81 0v1434h614v-205h-389v-400h310v-204h-310v-420h389v-205h-614zM101 1577q48 86 95 118q40 27 99 27q50 0 116 -27l48 -19q26 -9 47 -9q56 0 90 68l115 -86q-48 -86 -95 -118q-40 -28 -100 -28q-49 0 -116 28l-48 19q-26 9 -47 9q-56 0 -90 -68z" />
<glyph unicode="&#x1ebd;" horiz-adv-x="753" d="M81 0v1434h614v-205h-389v-400h310v-204h-310v-420h389v-205h-614zM101 1577q48 86 95 118q40 27 99 27q50 0 116 -27l48 -19q26 -9 47 -9q56 0 90 68l115 -86q-48 -86 -95 -118q-40 -28 -100 -28q-49 0 -116 28l-48 19q-26 9 -47 9q-56 0 -90 -68z" />
<glyph unicode="&#x1ebe;" horiz-adv-x="753" d="M81 0v1434h614v-205h-389v-400h310v-204h-310v-420h389v-205h-614zM87 1503l191 240h215l190 -240h-203l-96 119l-94 -119h-203zM624 1654l147 240h234l-222 -240h-159z" />
<glyph unicode="&#x1ebf;" horiz-adv-x="753" d="M81 0v1434h614v-205h-389v-400h310v-204h-310v-420h389v-205h-614zM87 1503l191 240h215l190 -240h-203l-96 119l-94 -119h-203zM624 1654l147 240h234l-222 -240h-159z" />
<glyph unicode="&#x1ec0;" horiz-adv-x="753" d="M81 0v1434h614v-205h-389v-400h310v-204h-310v-420h389v-205h-614zM87 1503l191 240h215l190 -240h-203l-96 119l-94 -119h-203zM432 1908h243l148 -240h-170z" />
<glyph unicode="&#x1ec1;" horiz-adv-x="753" d="M81 0v1434h614v-205h-389v-400h310v-204h-310v-420h389v-205h-614zM87 1503l191 240h215l190 -240h-203l-96 119l-94 -119h-203zM432 1908h243l148 -240h-170z" />
<glyph unicode="&#x1ec2;" horiz-adv-x="753" d="M81 0v1434h614v-205h-389v-400h310v-204h-310v-420h389v-205h-614zM87 1503l191 240h215l190 -240h-203l-96 119l-94 -119h-203zM546 1849v75q0 156 146 156q145 0 145 -156q0 -51 -16 -94q-8 -16 -19 -35q-6 -12 -18 -28q-2 -2 -4 -6l-15 -19q-8 -12 -14 -22 q-12 -25 -12 -52q0 -7 2 -22h-121q-2 13 -2 25q0 45 16 79q6 15 15 31l34 51q7 13 13 27q12 31 12 70q0 30 -18 30q-19 0 -19 -30v-80h-125z" />
<glyph unicode="&#x1ec3;" horiz-adv-x="753" d="M81 0v1434h614v-205h-389v-400h310v-204h-310v-420h389v-205h-614zM87 1503l191 240h215l190 -240h-203l-96 119l-94 -119h-203zM546 1849v75q0 156 146 156q145 0 145 -156q0 -51 -16 -94q-8 -16 -19 -35q-6 -12 -18 -28q-2 -2 -4 -6l-15 -19q-8 -12 -14 -22 q-12 -25 -12 -52q0 -7 2 -22h-121q-2 13 -2 25q0 45 16 79q6 15 15 31l34 51q7 13 13 27q12 31 12 70q0 30 -18 30q-19 0 -19 -30v-80h-125z" />
<glyph unicode="&#x1ec4;" horiz-adv-x="753" d="M81 0v1434h614v-205h-389v-400h310v-204h-310v-420h389v-205h-614zM87 1503l191 240h215l190 -240h-203l-96 119l-94 -119h-203zM118 1861q48 86 95 118q40 27 99 27q50 0 116 -27l48 -19q26 -9 47 -9q56 0 90 68l115 -86q-48 -86 -95 -118q-40 -28 -100 -28 q-49 0 -116 28l-48 19q-26 9 -47 9q-56 0 -90 -68z" />
<glyph unicode="&#x1ec5;" horiz-adv-x="753" d="M81 0v1434h614v-205h-389v-400h310v-204h-310v-420h389v-205h-614zM87 1503l191 240h215l190 -240h-203l-96 119l-94 -119h-203zM118 1861q48 86 95 118q40 27 99 27q50 0 116 -27l48 -19q26 -9 47 -9q56 0 90 68l115 -86q-48 -86 -95 -118q-40 -28 -100 -28 q-49 0 -116 28l-48 19q-26 9 -47 9q-56 0 -90 -68z" />
<glyph unicode="&#x1ec6;" horiz-adv-x="753" d="M81 0v1434h614v-205h-389v-400h310v-204h-310v-420h389v-205h-614zM87 1503l191 240h215l190 -240h-203l-96 119l-94 -119h-203zM284 -107h209v-209h-209v209z" />
<glyph unicode="&#x1ec7;" horiz-adv-x="753" d="M81 0v1434h614v-205h-389v-400h310v-204h-310v-420h389v-205h-614zM87 1503l191 240h215l190 -240h-203l-96 119l-94 -119h-203zM284 -107h209v-209h-209v209z" />
<glyph unicode="&#x1ec8;" horiz-adv-x="389" d="M55 1694v75q0 156 145 156q146 0 146 -156q0 -51 -17 -94q-8 -16 -18 -35q-6 -12 -18 -28q-2 -2 -5 -6l-14 -19q-8 -12 -14 -22q-12 -25 -12 -52q0 -7 2 -22h-121q-2 13 -2 25q0 45 16 79q6 15 14 31l35 51q6 13 13 27q12 31 12 70q0 30 -19 30q-18 0 -18 -30v-80h-125z M81 0v1434h225v-1434h-225z" />
<glyph unicode="&#x1ec9;" horiz-adv-x="389" d="M55 1694v75q0 156 145 156q146 0 146 -156q0 -51 -17 -94q-8 -16 -18 -35q-6 -12 -18 -28q-2 -2 -5 -6l-14 -19q-8 -12 -14 -22q-12 -25 -12 -52q0 -7 2 -22h-121q-2 13 -2 25q0 45 16 79q6 15 14 31l35 51q6 13 13 27q12 31 12 70q0 30 -19 30q-18 0 -18 -30v-80h-125z M81 0v1434h225v-1434h-225z" />
<glyph unicode="&#x1eca;" horiz-adv-x="389" d="M81 0v1434h225v-1434h-225zM89 -107h209v-209h-209v209z" />
<glyph unicode="&#x1ecb;" horiz-adv-x="389" d="M81 0v1434h225v-1434h-225zM89 -107h209v-209h-209v209z" />
<glyph unicode="&#x1ecc;" d="M63 344v746q0 360 342 360t342 -360v-746q0 -360 -342 -360t-342 360zM288 330q0 -142 117 -142t117 142v774q0 141 -117 141t-117 -141v-774zM301 -107h208v-209h-208v209z" />
<glyph unicode="&#x1ecd;" d="M63 344v746q0 360 342 360t342 -360v-746q0 -360 -342 -360t-342 360zM288 330q0 -142 117 -142t117 142v774q0 141 -117 141t-117 -141v-774zM301 -107h208v-209h-208v209z" />
<glyph unicode="&#x1ece;" d="M63 344v746q0 360 342 360t342 -360v-746q0 -360 -342 -360t-342 360zM260 1694v75q0 156 145 156t145 -156q0 -51 -16 -94q-8 -16 -18 -35q-7 -12 -19 -28q-2 -2 -4 -6l-14 -19q-8 -12 -15 -22q-12 -25 -12 -52q0 -7 2 -22h-120q-3 13 -3 25q0 45 17 79q6 15 14 31 l35 51q6 13 12 27q12 31 12 70q0 30 -18 30t-18 -30v-80h-125zM288 330q0 -142 117 -142t117 142v774q0 141 -117 141t-117 -141v-774z" />
<glyph unicode="&#x1ecf;" d="M63 344v746q0 360 342 360t342 -360v-746q0 -360 -342 -360t-342 360zM260 1694v75q0 156 145 156t145 -156q0 -51 -16 -94q-8 -16 -18 -35q-7 -12 -19 -28q-2 -2 -4 -6l-14 -19q-8 -12 -15 -22q-12 -25 -12 -52q0 -7 2 -22h-120q-3 13 -3 25q0 45 17 79q6 15 14 31 l35 51q6 13 12 27q12 31 12 70q0 30 -18 30t-18 -30v-80h-125zM288 330q0 -142 117 -142t117 142v774q0 141 -117 141t-117 -141v-774z" />
<glyph unicode="&#x1ed0;" d="M63 344v746q0 360 342 360t342 -360v-746q0 -360 -342 -360t-342 360zM106 1503l190 240h216l190 -240h-203l-96 119l-94 -119h-203zM288 330q0 -142 117 -142t117 142v774q0 141 -117 141t-117 -141v-774zM641 1649l148 240h233l-221 -240h-160z" />
<glyph unicode="&#x1ed1;" d="M63 344v746q0 360 342 360t342 -360v-746q0 -360 -342 -360t-342 360zM106 1503l190 240h216l190 -240h-203l-96 119l-94 -119h-203zM288 330q0 -142 117 -142t117 142v774q0 141 -117 141t-117 -141v-774zM641 1649l148 240h233l-221 -240h-160z" />
<glyph unicode="&#x1ed2;" d="M63 344v746q0 360 342 360t342 -360v-746q0 -360 -342 -360t-342 360zM106 1503l190 240h216l190 -240h-203l-96 119l-94 -119h-203zM288 330q0 -142 117 -142t117 142v774q0 141 -117 141t-117 -141v-774zM461 1900h244l148 -240h-170z" />
<glyph unicode="&#x1ed3;" d="M63 344v746q0 360 342 360t342 -360v-746q0 -360 -342 -360t-342 360zM106 1503l190 240h216l190 -240h-203l-96 119l-94 -119h-203zM288 330q0 -142 117 -142t117 142v774q0 141 -117 141t-117 -141v-774zM461 1900h244l148 -240h-170z" />
<glyph unicode="&#x1ed4;" d="M63 344v746q0 360 342 360t342 -360v-746q0 -360 -342 -360t-342 360zM106 1503l190 240h216l190 -240h-203l-96 119l-94 -119h-203zM288 330q0 -142 117 -142t117 142v774q0 141 -117 141t-117 -141v-774zM570 1858v75q0 156 145 156t145 -156q0 -51 -16 -94 q-8 -16 -18 -35q-7 -12 -19 -28q-2 -2 -4 -6l-14 -19q-8 -12 -15 -22q-12 -25 -12 -52q0 -7 2 -22h-120q-3 13 -3 25q0 45 17 79q6 15 14 31l35 51q6 13 12 27q12 31 12 70q0 30 -18 30t-18 -30v-80h-125z" />
<glyph unicode="&#x1ed5;" d="M63 344v746q0 360 342 360t342 -360v-746q0 -360 -342 -360t-342 360zM106 1503l190 240h216l190 -240h-203l-96 119l-94 -119h-203zM288 330q0 -142 117 -142t117 142v774q0 141 -117 141t-117 -141v-774zM570 1858v75q0 156 145 156t145 -156q0 -51 -16 -94 q-8 -16 -18 -35q-7 -12 -19 -28q-2 -2 -4 -6l-14 -19q-8 -12 -15 -22q-12 -25 -12 -52q0 -7 2 -22h-120q-3 13 -3 25q0 45 17 79q6 15 14 31l35 51q6 13 12 27q12 31 12 70q0 30 -18 30t-18 -30v-80h-125z" />
<glyph unicode="&#x1ed6;" d="M63 344v746q0 360 342 360t342 -360v-746q0 -360 -342 -360t-342 360zM106 1503l190 240h216l190 -240h-203l-96 119l-94 -119h-203zM152 1863q48 86 95 118q40 27 99 27q50 0 117 -27l48 -19q26 -9 46 -9q57 0 90 68l115 -86q-48 -86 -95 -118q-40 -28 -99 -28 q-50 0 -117 28l-48 19q-25 9 -46 9q-57 0 -90 -68zM288 330q0 -142 117 -142t117 142v774q0 141 -117 141t-117 -141v-774z" />
<glyph unicode="&#x1ed7;" d="M63 344v746q0 360 342 360t342 -360v-746q0 -360 -342 -360t-342 360zM106 1503l190 240h216l190 -240h-203l-96 119l-94 -119h-203zM152 1863q48 86 95 118q40 27 99 27q50 0 117 -27l48 -19q26 -9 46 -9q57 0 90 68l115 -86q-48 -86 -95 -118q-40 -28 -99 -28 q-50 0 -117 28l-48 19q-25 9 -46 9q-57 0 -90 -68zM288 330q0 -142 117 -142t117 142v774q0 141 -117 141t-117 -141v-774z" />
<glyph unicode="&#x1ed8;" d="M63 344v746q0 360 342 360t342 -360v-746q0 -360 -342 -360t-342 360zM106 1503l190 240h216l190 -240h-203l-96 119l-94 -119h-203zM288 330q0 -142 117 -142t117 142v774q0 141 -117 141t-117 -141v-774zM301 -107h208v-209h-208v209z" />
<glyph unicode="&#x1ed9;" d="M63 344v746q0 360 342 360t342 -360v-746q0 -360 -342 -360t-342 360zM106 1503l190 240h216l190 -240h-203l-96 119l-94 -119h-203zM288 330q0 -142 117 -142t117 142v774q0 141 -117 141t-117 -141v-774zM301 -107h208v-209h-208v209z" />
<glyph unicode="&#x1eda;" d="M63 344v746q0 360 343 360q140 0 223 -61v137h194v-186l-77 -192q2 -28 2 -58v-746q0 -360 -342 -360q-343 0 -343 360zM289 330q0 -142 117 -142q116 0 116 142v774q0 141 -116 141q-117 0 -117 -141v-774zM297 1503l147 240h234l-221 -240h-160z" />
<glyph unicode="&#x1edb;" d="M63 344v746q0 360 343 360q140 0 223 -61v137h194v-186l-77 -192q2 -28 2 -58v-746q0 -360 -342 -360q-343 0 -343 360zM289 330q0 -142 117 -142q116 0 116 142v774q0 141 -116 141q-117 0 -117 -141v-774zM297 1503l147 240h234l-221 -240h-160z" />
<glyph unicode="&#x1edc;" d="M63 344v746q0 360 343 360q140 0 223 -61v137h194v-186l-77 -192q2 -28 2 -58v-746q0 -360 -342 -360q-343 0 -343 360zM127 1743h244l147 -240h-170zM289 330q0 -142 117 -142q116 0 116 142v774q0 141 -116 141q-117 0 -117 -141v-774z" />
<glyph unicode="&#x1edd;" d="M63 344v746q0 360 343 360q140 0 223 -61v137h194v-186l-77 -192q2 -28 2 -58v-746q0 -360 -342 -360q-343 0 -343 360zM127 1743h244l147 -240h-170zM289 330q0 -142 117 -142q116 0 116 142v774q0 141 -116 141q-117 0 -117 -141v-774z" />
<glyph unicode="&#x1ede;" d="M63 344v746q0 360 343 360q140 0 223 -61v137h194v-186l-77 -192q2 -28 2 -58v-746q0 -360 -342 -360q-343 0 -343 360zM260 1694v75q0 156 146 156q145 0 145 -156q0 -51 -16 -94q-9 -16 -19 -35q-6 -12 -18 -28q-2 -2 -4 -6l-15 -19q-8 -12 -14 -22q-12 -25 -12 -52 q0 -7 2 -22h-121q-2 13 -2 25q0 45 16 79q6 15 14 31l35 51q6 13 13 27q12 31 12 70q0 30 -19 30q-18 0 -18 -30v-80h-125zM289 330q0 -142 117 -142q116 0 116 142v774q0 141 -116 141q-117 0 -117 -141v-774z" />
<glyph unicode="&#x1edf;" d="M63 344v746q0 360 343 360q140 0 223 -61v137h194v-186l-77 -192q2 -28 2 -58v-746q0 -360 -342 -360q-343 0 -343 360zM260 1694v75q0 156 146 156q145 0 145 -156q0 -51 -16 -94q-9 -16 -19 -35q-6 -12 -18 -28q-2 -2 -4 -6l-15 -19q-8 -12 -14 -22q-12 -25 -12 -52 q0 -7 2 -22h-121q-2 13 -2 25q0 45 16 79q6 15 14 31l35 51q6 13 13 27q12 31 12 70q0 30 -19 30q-18 0 -18 -30v-80h-125zM289 330q0 -142 117 -142q116 0 116 142v774q0 141 -116 141q-117 0 -117 -141v-774z" />
<glyph unicode="&#x1ee0;" d="M63 344v746q0 360 343 360q140 0 223 -61v137h194v-186l-77 -192q2 -28 2 -58v-746q0 -360 -342 -360q-343 0 -343 360zM115 1623q48 86 95 118q40 27 100 27q50 0 116 -27l48 -19q26 -9 47 -9q56 0 90 68l115 -86q-48 -86 -95 -118q-40 -28 -100 -28q-50 0 -116 28 l-48 19q-26 9 -47 9q-56 0 -90 -68zM289 330q0 -142 117 -142q116 0 116 142v774q0 141 -116 141q-117 0 -117 -141v-774z" />
<glyph unicode="&#x1ee1;" d="M63 344v746q0 360 343 360q140 0 223 -61v137h194v-186l-77 -192q2 -28 2 -58v-746q0 -360 -342 -360q-343 0 -343 360zM115 1623q48 86 95 118q40 27 100 27q50 0 116 -27l48 -19q26 -9 47 -9q56 0 90 68l115 -86q-48 -86 -95 -118q-40 -28 -100 -28q-50 0 -116 28 l-48 19q-26 9 -47 9q-56 0 -90 -68zM289 330q0 -142 117 -142q116 0 116 142v774q0 141 -116 141q-117 0 -117 -141v-774z" />
<glyph unicode="&#x1ee2;" d="M63 344v746q0 360 343 360q140 0 223 -61v137h194v-186l-77 -192q2 -28 2 -58v-746q0 -360 -342 -360q-343 0 -343 360zM289 330q0 -142 117 -142q116 0 116 142v774q0 141 -116 141q-117 0 -117 -141v-774zM301 -107h209v-209h-209v209z" />
<glyph unicode="&#x1ee3;" d="M63 344v746q0 360 343 360q140 0 223 -61v137h194v-186l-77 -192q2 -28 2 -58v-746q0 -360 -342 -360q-343 0 -343 360zM289 330q0 -142 117 -142q116 0 116 142v774q0 141 -116 141q-117 0 -117 -141v-774zM301 -107h209v-209h-209v209z" />
<glyph unicode="&#x1ee4;" horiz-adv-x="815" d="M71 342v1092h225v-1106q0 -140 117 -140t117 140v1106h213v-1092q0 -360 -336 -360t-336 360zM302 -107h209v-209h-209v209z" />
<glyph unicode="&#x1ee5;" horiz-adv-x="815" d="M71 342v1092h225v-1106q0 -140 117 -140t117 140v1106h213v-1092q0 -360 -336 -360t-336 360zM302 -107h209v-209h-209v209z" />
<glyph unicode="&#x1ee6;" horiz-adv-x="815" d="M71 342v1092h225v-1106q0 -140 117 -140t117 140v1106h213v-1092q0 -360 -336 -360t-336 360zM259 1694v75q0 156 146 156q145 0 145 -156q0 -51 -16 -94q-8 -16 -19 -35q-6 -12 -18 -28q-2 -2 -4 -6l-14 -19q-9 -12 -15 -22q-12 -25 -12 -52q0 -7 2 -22h-120 q-3 13 -3 25q0 45 16 79q7 15 15 31l35 51q6 13 12 27q12 31 12 70q0 30 -18 30q-19 0 -19 -30v-80h-125z" />
<glyph unicode="&#x1ee7;" horiz-adv-x="815" d="M71 342v1092h225v-1106q0 -140 117 -140t117 140v1106h213v-1092q0 -360 -336 -360t-336 360zM259 1694v75q0 156 146 156q145 0 145 -156q0 -51 -16 -94q-8 -16 -19 -35q-6 -12 -18 -28q-2 -2 -4 -6l-14 -19q-9 -12 -15 -22q-12 -25 -12 -52q0 -7 2 -22h-120 q-3 13 -3 25q0 45 16 79q7 15 15 31l35 51q6 13 12 27q12 31 12 70q0 30 -18 30q-19 0 -19 -30v-80h-125z" />
<glyph unicode="&#x1ee8;" horiz-adv-x="815" d="M71 342v1092h225v-1106q0 -140 117 -140q116 0 116 140v1106h99v92h194v-186l-80 -198v-800q0 -360 -335 -360q-336 0 -336 360zM300 1503l148 240h233l-221 -240h-160z" />
<glyph unicode="&#x1ee9;" horiz-adv-x="815" d="M71 342v1092h225v-1106q0 -140 117 -140q116 0 116 140v1106h99v92h194v-186l-80 -198v-800q0 -360 -335 -360q-336 0 -336 360zM300 1503l148 240h233l-221 -240h-160z" />
<glyph unicode="&#x1eea;" horiz-adv-x="815" d="M71 342v1092h225v-1106q0 -140 117 -140q116 0 116 140v1106h99v92h194v-186l-80 -198v-800q0 -360 -335 -360q-336 0 -336 360zM130 1743h244l147 -240h-170z" />
<glyph unicode="&#x1eeb;" horiz-adv-x="815" d="M71 342v1092h225v-1106q0 -140 117 -140q116 0 116 140v1106h99v92h194v-186l-80 -198v-800q0 -360 -335 -360q-336 0 -336 360zM130 1743h244l147 -240h-170z" />
<glyph unicode="&#x1eec;" horiz-adv-x="815" d="M71 342v1092h225v-1106q0 -140 117 -140q116 0 116 140v1106h99v92h194v-186l-80 -198v-800q0 -360 -335 -360q-336 0 -336 360zM259 1694v75q0 156 146 156q145 0 145 -156q0 -51 -16 -94q-9 -16 -19 -35q-6 -12 -18 -28q-2 -2 -4 -6l-15 -19q-8 -12 -14 -22 q-12 -25 -12 -52q0 -7 2 -22h-121q-2 13 -2 25q0 45 16 79q6 15 14 31l35 51q6 13 13 27q12 31 12 70q0 30 -19 30q-18 0 -18 -30v-80h-125z" />
<glyph unicode="&#x1eed;" horiz-adv-x="815" d="M71 342v1092h225v-1106q0 -140 117 -140q116 0 116 140v1106h99v92h194v-186l-80 -198v-800q0 -360 -335 -360q-336 0 -336 360zM259 1694v75q0 156 146 156q145 0 145 -156q0 -51 -16 -94q-9 -16 -19 -35q-6 -12 -18 -28q-2 -2 -4 -6l-15 -19q-8 -12 -14 -22 q-12 -25 -12 -52q0 -7 2 -22h-121q-2 13 -2 25q0 45 16 79q6 15 14 31l35 51q6 13 13 27q12 31 12 70q0 30 -19 30q-18 0 -18 -30v-80h-125z" />
<glyph unicode="&#x1eee;" horiz-adv-x="815" d="M71 342v1092h225v-1106q0 -140 117 -140q116 0 116 140v1106h99v92h194v-186l-80 -198v-800q0 -360 -335 -360q-336 0 -336 360zM99 1629q48 86 95 118q40 27 100 27q50 0 116 -27l48 -19q26 -9 47 -9q56 0 90 68l115 -86q-48 -86 -95 -118q-40 -28 -100 -28 q-50 0 -116 28l-48 19q-26 9 -47 9q-56 0 -90 -68z" />
<glyph unicode="&#x1eef;" horiz-adv-x="815" d="M71 342v1092h225v-1106q0 -140 117 -140q116 0 116 140v1106h99v92h194v-186l-80 -198v-800q0 -360 -335 -360q-336 0 -336 360zM99 1629q48 86 95 118q40 27 100 27q50 0 116 -27l48 -19q26 -9 47 -9q56 0 90 68l115 -86q-48 -86 -95 -118q-40 -28 -100 -28 q-50 0 -116 28l-48 19q-26 9 -47 9q-56 0 -90 -68z" />
<glyph unicode="&#x1ef0;" horiz-adv-x="815" d="M71 342v1092h225v-1106q0 -140 117 -140q116 0 116 140v1106h99v92h194v-186l-80 -198v-800q0 -360 -335 -360q-336 0 -336 360zM302 -107h209v-209h-209v209z" />
<glyph unicode="&#x1ef1;" horiz-adv-x="815" d="M71 342v1092h225v-1106q0 -140 117 -140q116 0 116 140v1106h99v92h194v-186l-80 -198v-800q0 -360 -335 -360q-336 0 -336 360zM302 -107h209v-209h-209v209z" />
<glyph unicode="&#x1ef2;" d="M8 1434h236l172 -654l172 654h215l-285 -959v-475h-225v475zM131 1743h244l147 -240h-170z" />
<glyph unicode="&#x1ef3;" d="M8 1434h236l172 -654l172 654h215l-285 -959v-475h-225v475zM131 1743h244l147 -240h-170z" />
<glyph unicode="&#x1ef4;" d="M8 1434h236l172 -654l172 654h215l-285 -959v-475h-225v475zM303 -107h209v-209h-209v209z" />
<glyph unicode="&#x1ef5;" d="M8 1434h236l172 -654l172 654h215l-285 -959v-475h-225v475zM303 -107h209v-209h-209v209z" />
<glyph unicode="&#x1ef6;" d="M8 1434h236l172 -654l172 654h215l-285 -959v-475h-225v475zM286 1694v75q0 156 145 156q146 0 146 -156q0 -51 -17 -94q-8 -16 -18 -35q-6 -12 -19 -28q-2 -2 -4 -6l-14 -19q-8 -12 -14 -22q-13 -25 -13 -52q0 -7 3 -22h-121q-2 13 -2 25q0 45 16 79q6 15 14 31l35 51 q6 13 12 27q13 31 13 70q0 30 -19 30q-18 0 -18 -30v-80h-125z" />
<glyph unicode="&#x1ef7;" d="M8 1434h236l172 -654l172 654h215l-285 -959v-475h-225v475zM286 1694v75q0 156 145 156q146 0 146 -156q0 -51 -17 -94q-8 -16 -18 -35q-6 -12 -19 -28q-2 -2 -4 -6l-14 -19q-8 -12 -14 -22q-13 -25 -13 -52q0 -7 3 -22h-121q-2 13 -2 25q0 45 16 79q6 15 14 31l35 51 q6 13 12 27q13 31 13 70q0 30 -19 30q-18 0 -18 -30v-80h-125z" />
<glyph unicode="&#x1ef8;" d="M8 1434h236l172 -654l172 654h215l-285 -959v-475h-225v475zM100 1577q48 86 95 118q40 27 100 27q49 0 116 -27l48 -19q26 -9 47 -9q56 0 90 68l114 -86q-48 -86 -95 -118q-39 -28 -99 -28q-50 0 -116 28l-48 19q-26 9 -47 9q-56 0 -90 -68z" />
<glyph unicode="&#x1ef9;" d="M8 1434h236l172 -654l172 654h215l-285 -959v-475h-225v475zM100 1577q48 86 95 118q40 27 100 27q49 0 116 -27l48 -19q26 -9 47 -9q56 0 90 68l114 -86q-48 -86 -95 -118q-39 -28 -99 -28q-50 0 -116 28l-48 19q-26 9 -47 9q-56 0 -90 -68z" />
<glyph unicode="&#x2000;" horiz-adv-x="1097" />
<glyph unicode="&#x2001;" horiz-adv-x="2195" />
<glyph unicode="&#x2002;" horiz-adv-x="1097" />
<glyph unicode="&#x2003;" horiz-adv-x="2195" />
<glyph unicode="&#x2004;" horiz-adv-x="731" />
<glyph unicode="&#x2005;" horiz-adv-x="548" />
<glyph unicode="&#x2006;" horiz-adv-x="365" />
<glyph unicode="&#x2007;" horiz-adv-x="365" />
<glyph unicode="&#x2008;" horiz-adv-x="274" />
<glyph unicode="&#x2009;" horiz-adv-x="439" />
<glyph unicode="&#x200a;" horiz-adv-x="121" />
<glyph unicode="&#x2010;" horiz-adv-x="552" d="M71 614v205h410v-205h-410z" />
<glyph unicode="&#x2011;" horiz-adv-x="552" d="M71 614v205h410v-205h-410z" />
<glyph unicode="&#x2012;" horiz-adv-x="552" d="M71 614v205h410v-205h-410z" />
<glyph unicode="&#x2013;" horiz-adv-x="1024" d="M0 625v184h1024v-184h-1024z" />
<glyph unicode="&#x2014;" horiz-adv-x="2048" d="M0 625v184h2048v-184h-2048z" />
<glyph unicode="&#x2018;" horiz-adv-x="380" d="M81 1012v194l98 228h92l-59 -205h86v-217h-217z" />
<glyph unicode="&#x2019;" horiz-adv-x="380" d="M81 1217v217h217v-195l-98 -227h-92l59 205h-86z" />
<glyph unicode="&#x201c;" horiz-adv-x="679" d="M81 1012v194l98 228h92l-59 -205h86v-217h-217zM380 1012v194l98 228h92l-59 -205h86v-217h-217z" />
<glyph unicode="&#x201d;" horiz-adv-x="679" d="M81 1217v217h217v-195l-98 -227h-92l59 205h-86zM380 1217v217h217v-195l-98 -227h-92l59 205h-86z" />
<glyph unicode="&#x2026;" horiz-adv-x="978" d="M81 0v217h217v-217h-217zM380 0v217h217v-217h-217zM679 0v217h217v-217h-217z" />
<glyph unicode="&#x202f;" horiz-adv-x="439" />
<glyph unicode="&#x205f;" horiz-adv-x="548" />
<glyph unicode="&#x25fc;" horiz-adv-x="1435" d="M0 0v1435h1435v-1435h-1435z" />
</font>
</defs>
</svg>
